<?xml version="1.0" encoding="iso-8859-1"?>
<!-- Uploaded to: SVG Repo, www.svgrepo.com, Transformed by: SVG Repo Mixer Tools -->
<svg height="800px" width="800px" version="1.1" id="Layer_1" xmlns="http://www.w3.org/2000/svg" xmlns:xlink="http://www.w3.org/1999/xlink" 
	 viewBox="0 0 511.954 511.954" xml:space="preserve">
<path style="fill:#555656;" d="M68.752,324.327l12.4,17.1L68.752,324.327z"/>
<path style="fill:#717272;" d="M15.452,259.527l49.2,67.7l1.5,2.1l12.4,17.1h381.5l1.1-0.6c25.8-13.7,37.4-38,38.7-81.1l0.2-5.2
	H15.452z M105.952,293.727h-7.1v-7.1h7.1V293.727z M140.152,293.727h-7.1v-7.1h7.1V293.727z M174.252,293.727h-7.1v-7.1h7.1V293.727
	z M208.352,293.727h-7.1v-7.1h7.1V293.727z M242.552,293.727h-7.1v-7.1h7.1V293.727z M276.652,293.727h-7.1v-7.1h7.1V293.727z
	 M310.753,293.727h-7.1v-7.1h7.1V293.727z M344.952,293.727h-7.1v-7.1h7.1V293.727z M379.052,293.727h-7.1v-7.1h7.1V293.727z
	 M413.152,293.727h-7.1v-7.1h7.1V293.727z M447.352,293.727h-7.1v-7.1h7.1V293.727z"/>
<path style="fill:#555656;" d="M476.852,258.527c-3.6,30.6-12.3,54.8-32.8,65.7h-385.3l12.4,20.1h394.6
	c24.1-12.8,34.8-44.5,36.1-85.8H476.852z"/>
<g>
	<polygon style="fill:#D50000;" points="433.052,191.327 232.652,191.327 219.152,218.327 446.552,218.327 	"/>
	<polygon style="fill:#D50000;" points="467.152,225.427 138.752,225.427 125.252,252.527 480.753,252.527 	"/>
</g>
<g>
	<polygon style="fill:#B71C1C;" points="473.952,226.427 455.253,226.427 460.552,238.927 131.352,238.927 122.052,257.527 
		488.552,257.527 	"/>
	<polygon style="fill:#B71C1C;" points="440.352,192.727 421.652,192.727 426.852,205.327 225.652,205.327 216.352,223.827 
		454.852,223.827 	"/>
</g>
<path d="M503.552,247.527h-11.8l-14.8-29.5c-1.4-2.9-4.4-4.7-7.6-4.7h-11.8l-14.7-29.4c-1.4-2.9-4.4-4.7-7.6-4.7h-34.2v-21.3
	c0-2.4-1.9-4.3-4.3-4.3h-8.5c-2.4,0-4.3,1.9-4.3,4.3v21.3h-42.7v-21.3c0-2.4-1.9-4.3-4.3-4.3h-8.5c-2.4,0-4.3,1.9-4.3,4.3v21.3
	h-42.7v-21.3c0-2.4-1.9-4.3-4.3-4.3h-8.5c-2.4,0-4.3,1.9-4.3,4.3v21.3h-34.2c-3.2,0-6.2,1.8-7.6,4.7l-14.5,29.4h-71.5
	c-3.2,0-6.2,1.8-7.6,4.7l-14.8,29.4H8.552c-3.2,0-6.1,1.8-7.6,4.7c-1.5,2.8-1.2,6.2,0.7,8.9l68.2,93.8c1.6,2.2,4.2,3.5,6.9,3.5
	h384.1c1.3,0,2.6-0.3,3.7-0.9c41.8-20.9,47.4-63,47.4-101.5C512.052,251.327,508.253,247.527,503.552,247.527z M235.752,196.327
	h194.2l8.5,17.1h-211.2L235.752,196.327z M141.852,230.427h322.2l8.5,17.1h-339.2L141.852,230.427z M458.852,341.327h-377.7
	l-55.9-76.8h469.6C493.652,305.827,482.852,328.527,458.852,341.327z"/>
<path d="M268.852,298.727h8.5c2.4,0,4.3-1.9,4.3-4.3v-8.5c0-2.4-1.9-4.3-4.3-4.3h-8.5c-2.4,0-4.3,1.9-4.3,4.3v8.5
	C264.552,296.827,266.452,298.727,268.852,298.727z"/>
<path d="M234.752,298.727h8.5c2.4,0,4.3-1.9,4.3-4.3v-8.5c0-2.4-1.9-4.3-4.3-4.3h-8.5c-2.4,0-4.3,1.9-4.3,4.3v8.5
	C230.452,296.827,232.352,298.727,234.752,298.727z"/>
<path d="M166.452,298.727h8.5c2.4,0,4.3-1.9,4.3-4.3v-8.5c0-2.4-1.9-4.3-4.3-4.3h-8.5c-2.4,0-4.3,1.9-4.3,4.3v8.5
	C162.152,296.827,164.052,298.727,166.452,298.727z"/>
<path d="M132.352,298.727h8.5c2.4,0,4.3-1.9,4.3-4.3v-8.5c0-2.4-1.9-4.3-4.3-4.3h-8.5c-2.4,0-4.3,1.9-4.3,4.3v8.5
	C128.052,296.827,129.952,298.727,132.352,298.727z"/>
<path d="M98.152,298.727h8.5c2.4,0,4.3-1.9,4.3-4.3v-8.5c0-2.4-1.9-4.3-4.3-4.3h-8.5c-2.4,0-4.3,1.9-4.3,4.3v8.5
	C93.952,296.827,95.752,298.727,98.152,298.727z"/>
<path d="M200.552,298.727h8.5c2.4,0,4.3-1.9,4.3-4.3v-8.5c0-2.4-1.9-4.3-4.3-4.3h-8.5c-2.4,0-4.3,1.9-4.3,4.3v8.5
	C196.352,296.827,198.152,298.727,200.552,298.727z"/>
<path d="M439.552,298.727h8.5c2.4,0,4.3-1.9,4.3-4.3v-8.5c0-2.4-1.9-4.3-4.3-4.3h-8.5c-2.4,0-4.3,1.9-4.3,4.3v8.5
	C435.253,296.827,437.152,298.727,439.552,298.727z"/>
<path d="M302.952,298.727h8.5c2.4,0,4.3-1.9,4.3-4.3v-8.5c0-2.4-1.9-4.3-4.3-4.3h-8.5c-2.4,0-4.3,1.9-4.3,4.3v8.5
	C298.753,296.827,300.552,298.727,302.952,298.727z"/>
<path d="M405.352,298.727h8.5c2.4,0,4.3-1.9,4.3-4.3v-8.5c0-2.4-1.9-4.3-4.3-4.3h-8.5c-2.4,0-4.3,1.9-4.3,4.3v8.5
	C401.152,296.827,402.952,298.727,405.352,298.727z"/>
<path d="M371.253,298.727h8.5c2.4,0,4.3-1.9,4.3-4.3v-8.5c0-2.4-1.9-4.3-4.3-4.3h-8.5c-2.4,0-4.3,1.9-4.3,4.3v8.5
	C366.952,296.827,368.852,298.727,371.253,298.727z"/>
<path d="M337.152,298.727h8.5c2.4,0,4.3-1.9,4.3-4.3v-8.5c0-2.4-1.9-4.3-4.3-4.3h-8.5c-2.4,0-4.3,1.9-4.3,4.3v8.5
	C332.852,296.827,334.753,298.727,337.152,298.727z"/>
</svg>